<svg width="168" height="144" viewBox="0 0 168 144" fill="none" xmlns="http://www.w3.org/2000/svg">
<rect x="48" width="12" height="12" fill="#2E2E36"/>
<rect x="60" width="12" height="12" fill="#2E2E36"/>
<rect x="72" width="12" height="12" fill="#2E2E36"/>
<rect x="84" width="12" height="12" fill="#2E2E36"/>
<rect x="96" width="12" height="12" fill="#2E2E36"/>
<rect x="108" width="12" height="12" fill="#2E2E36"/>
<rect x="36" y="12" width="12" height="12" fill="#2E2E36"/>
<rect x="48" y="12" width="12" height="12" fill="#EDEDF2"/>
<rect x="60" y="12" width="12" height="12" fill="#EDEDF2"/>
<rect x="72" y="12" width="12" height="12" fill="#EDEDF2"/>
<rect x="84" y="12" width="12" height="12" fill="#EDEDF2"/>
<rect x="96" y="12" width="12" height="12" fill="#EDEDF2"/>
<rect x="108" y="12" width="12" height="12" fill="#EDEDF2"/>
<rect x="120" y="12" width="12" height="12" fill="#2E2E36"/>
<rect x="24" y="24" width="12" height="12" fill="#2E2E36"/>
<rect x="12" y="24" width="12" height="12" fill="#2E2E36"/>
<rect x="36" y="24" width="12" height="12" fill="#EDEDF2"/>
<rect x="48" y="24" width="12" height="12" fill="#EDEDF2"/>
<rect x="60" y="24" width="12" height="12" fill="#EDEDF2"/>
<rect x="72" y="24" width="12" height="12" fill="#EDEDF2"/>
<rect x="84" y="24" width="12" height="12" fill="#EDEDF2"/>
<rect x="96" y="24" width="12" height="12" fill="#EDEDF2"/>
<rect x="108" y="24" width="12" height="12" fill="#EDEDF2"/>
<rect x="120" y="24" width="12" height="12" fill="#EDEDF2"/>
<rect x="132" y="24" width="12" height="12" fill="#2E2E36"/>
<rect x="144" y="24" width="12" height="12" fill="#2E2E36"/>
<rect x="24" y="36" width="12" height="12" fill="#F5B3C7"/>
<rect x="12" y="36" width="12" height="12" fill="#F5B3C7"/>
<rect x="12" y="48" width="12" height="12" fill="#F5B3C7"/>
<rect x="36" y="36" width="12" height="12" fill="#EDEDF2"/>
<rect x="48" y="36" width="12" height="12" fill="#EDEDF2"/>
<rect x="60" y="36" width="12" height="12" fill="#EDEDF2"/>
<rect x="72" y="36" width="12" height="12" fill="#EDEDF2"/>
<rect x="84" y="36" width="12" height="12" fill="#EDEDF2"/>
<rect x="96" y="36" width="12" height="12" fill="#EDEDF2"/>
<rect x="108" y="36" width="12" height="12" fill="#EDEDF2"/>
<rect x="120" y="36" width="12" height="12" fill="#EDEDF2"/>
<rect x="132" y="36" width="12" height="12" fill="#F5B3C7"/>
<rect x="144" y="36" width="12" height="12" fill="#F5B3C7"/>
<rect x="144" y="48" width="12" height="12" fill="#F5B3C7"/>
<rect x="84" y="96" width="12" height="12" fill="#F5B3C7"/>
<rect x="72" y="96" width="12" height="12" fill="#F5B3C7"/>
<rect x="24" y="48" width="12" height="12" fill="#EDEDF2"/>
<rect x="36" y="48" width="12" height="12" fill="#EDEDF2"/>
<rect x="48" y="48" width="12" height="12" fill="#EDEDF2"/>
<rect x="60" y="48" width="12" height="12" fill="#EDEDF2"/>
<rect x="72" y="48" width="12" height="12" fill="#EDEDF2"/>
<rect x="84" y="48" width="12" height="12" fill="#EDEDF2"/>
<rect x="96" y="48" width="12" height="12" fill="#EDEDF2"/>
<rect x="108" y="48" width="12" height="12" fill="#EDEDF2"/>
<rect x="120" y="48" width="12" height="12" fill="#EDEDF2"/>
<rect x="132" y="48" width="12" height="12" fill="#EDEDF2"/>
<rect x="12" y="60" width="12" height="12" fill="#2E2E36"/>
<rect x="36" y="60" width="12" height="12" fill="#2E2E36"/>
<rect x="120" y="60" width="12" height="12" fill="#2E2E36"/>
<rect x="24" y="60" width="12" height="12" fill="#EDEDF2"/>
<rect x="48" y="60" width="12" height="12" fill="#1A1A21"/>
<rect x="60" y="60" width="12" height="12" fill="#EDEDF2"/>
<rect x="72" y="60" width="12" height="12" fill="#EDEDF2"/>
<rect x="84" y="60" width="12" height="12" fill="#EDEDF2"/>
<rect x="96" y="60" width="12" height="12" fill="#EDEDF2"/>
<rect x="108" y="60" width="12" height="12" fill="#1A1A21"/>
<rect x="132" y="60" width="12" height="12" fill="#EDEDF2"/>
<rect x="144" y="60" width="12" height="12" fill="#2E2E36"/>
<rect x="12" y="72" width="12" height="12" fill="#2E2E36"/>
<rect x="24" y="72" width="12" height="12" fill="#EDEDF2"/>
<rect x="36" y="72" width="12" height="12" fill="#EDEDF2"/>
<rect x="48" y="72" width="12" height="12" fill="#EDEDF2"/>
<rect x="72" y="72" width="12" height="12" fill="#EDEDF2"/>
<rect x="84" y="72" width="12" height="12" fill="#EDEDF2"/>
<rect x="108" y="72" width="12" height="12" fill="#EDEDF2"/>
<rect x="96" y="72" width="12" height="12" fill="#EDEDF2"/>
<rect x="60" y="72" width="12" height="12" fill="#EDEDF2"/>
<rect x="120" y="72" width="12" height="12" fill="#EDEDF2"/>
<rect x="132" y="72" width="12" height="12" fill="#EDEDF2"/>
<rect x="144" y="72" width="12" height="12" fill="#2E2E36"/>
<rect x="12" y="84" width="12" height="12" fill="#2E2E36"/>
<rect x="24" y="84" width="12" height="12" fill="#EDEDF2"/>
<rect x="36" y="84" width="12" height="12" fill="#EDEDF2"/>
<rect x="48" y="84" width="12" height="12" fill="#EDEDF2"/>
<rect x="60" y="84" width="12" height="12" fill="#EDEDF2"/>
<rect x="72" y="84" width="12" height="12" fill="#EB8CA6"/>
<rect x="84" y="84" width="12" height="12" fill="#EB8CA6"/>
<rect x="96" y="84" width="12" height="12" fill="#EDEDF2"/>
<rect x="108" y="84" width="12" height="12" fill="#EDEDF2"/>
<rect x="120" y="84" width="12" height="12" fill="#EDEDF2"/>
<rect x="132" y="84" width="12" height="12" fill="#EDEDF2"/>
<rect x="144" y="84" width="12" height="12" fill="#2E2E36"/>
<rect x="12" y="96" width="12" height="12" fill="#2E2E36"/>
<rect x="24" y="96" width="12" height="12" fill="#EDEDF2"/>
<rect x="36" y="96" width="12" height="12" fill="#EDEDF2"/>
<rect x="48" y="96" width="12" height="12" fill="#EDEDF2"/>
<rect x="60" y="96" width="12" height="12" fill="#EDEDF2"/>
<rect x="96" y="96" width="12" height="12" fill="#EDEDF2"/>
<rect x="108" y="96" width="12" height="12" fill="#EDEDF2"/>
<rect x="120" y="96" width="12" height="12" fill="#EDEDF2"/>
<rect x="132" y="96" width="12" height="12" fill="#EDEDF2"/>
<rect x="144" y="96" width="12" height="12" fill="#2E2E36"/>
<rect x="24" y="108" width="12" height="12" fill="#2E2E36"/>
<rect x="36" y="108" width="12" height="12" fill="#EDEDF2"/>
<rect x="48" y="108" width="12" height="12" fill="#EDEDF2"/>
<rect x="60" y="108" width="12" height="12" fill="#EDEDF2"/>
<rect x="72" y="108" width="12" height="12" fill="#EDEDF2"/>
<rect x="84" y="108" width="12" height="12" fill="#EDEDF2"/>
<rect x="96" y="108" width="12" height="12" fill="#EDEDF2"/>
<rect x="108" y="108" width="12" height="12" fill="#EDEDF2"/>
<rect x="120" y="108" width="12" height="12" fill="#EDEDF2"/>
<rect x="132" y="108" width="12" height="12" fill="#2E2E36"/>
<rect x="36" y="120" width="12" height="12" fill="#2E2E36"/>
<rect x="48" y="120" width="12" height="12" fill="#EDEDF2"/>
<rect x="60" y="120" width="12" height="12" fill="#EDEDF2"/>
<rect x="72" y="120" width="12" height="12" fill="#EDEDF2"/>
<rect x="84" y="120" width="12" height="12" fill="#EDEDF2"/>
<rect x="96" y="120" width="12" height="12" fill="#EDEDF2"/>
<rect x="108" y="120" width="12" height="12" fill="#EDEDF2"/>
<rect x="120" y="120" width="12" height="12" fill="#2E2E36"/>
<rect x="48" y="132" width="12" height="12" fill="#2E2E36"/>
<rect x="60" y="132" width="12" height="12" fill="#2E2E36"/>
<rect x="72" y="132" width="12" height="12" fill="#2E2E36"/>
<rect x="84" y="132" width="12" height="12" fill="#2E2E36"/>
<rect x="96" y="132" width="12" height="12" fill="#2E2E36"/>
<rect x="108" y="132" width="12" height="12" fill="#2E2E36"/>
<rect x="156" y="48" width="12" height="12" fill="#2E2E36"/>
<rect x="156" y="36" width="12" height="12" fill="#2E2E36"/>
<rect y="48" width="12" height="12" fill="#2E2E36"/>
<rect y="36" width="12" height="12" fill="#2E2E36"/>
</svg>
