<svg xmlns="http://www.w3.org/2000/svg" width="168" height="144" fill="none" viewBox="0 0 168 144"><path fill="#2e2e36" d="M48 0h12v12H48zm12 0h12v12H60zm12 0h12v12H72zm12 0h12v12H84zm12 0h12v12H96zm12 0h12v12h-12zM36 12h12v12H36zm84 0h12v12h-12zM24 24h12v12H24zm-12 0h12v12H12zm120 0h12v12h-12zm12 0h12v12h-12zM12 60h12v12H12zm24 0h12v12H36zm84 0h12v12h-12zm24 0h12v12h-12zM12 72h12v12H12zm132 0h12v12h-12zM12 84h12v12H12zm132 0h12v12h-12zM12 96h12v12H12zm132 0h12v12h-12zM24 108h12v12H24zm108 0h12v12h-12zm-96 12h12v12H36zm84 0h12v12h-12zm-72 12h12v12H48zm12 0h12v12H60zm12 0h12v12H72zm12 0h12v12H84zm12 0h12v12H96zm12 0h12v12h-12zm48-84h12v12h-12zm0-12h12v12h-12zM0 48h12v12H0zm0-12h12v12H0z"/><path fill="#ededf2" d="M48 12h12v12H48zm12 0h12v12H60zm12 0h12v12H72zm12 0h12v12H84zm12 0h12v12H96zm12 0h12v12h-12zM36 24h12v12H36zm12 0h12v12H48zm12 0h12v12H60zm12 0h12v12H72zm12 0h12v12H84zm12 0h12v12H96zm12 0h12v12h-12zm12 0h12v12h-12zM36 36h12v12H36zm12 0h12v12H48zm12 0h12v12H60zm12 0h12v12H72zm12 0h12v12H84zm12 0h12v12H96zm12 0h12v12h-12zm12 0h12v12h-12zM24 48h12v12H24zm12 0h12v12H36zm12 0h12v12H48zm12 0h12v12H60zm12 0h12v12H72zm12 0h12v12H84zm12 0h12v12H96zm12 0h12v12h-12zm12 0h12v12h-12zm12 0h12v12h-12zM24 60h12v12H24zm36 0h12v12H60zm12 0h12v12H72zm12 0h12v12H84zm12 0h12v12H96zm36 0h12v12h-12zM24 72h12v12H24zm12 0h12v12H36zm12 0h12v12H48zm24 0h12v12H72zm12 0h12v12H84zm24 0h12v12h-12zm-12 0h12v12H96zm-36 0h12v12H60zm60 0h12v12h-12zm12 0h12v12h-12zM24 84h12v12H24zm12 0h12v12H36zm12 0h12v12H48zm12 0h12v12H60zm36 0h12v12H96zm12 0h12v12h-12zm12 0h12v12h-12zm12 0h12v12h-12zM24 96h12v12H24zm12 0h12v12H36zm12 0h12v12H48zm12 0h12v12H60zm36 0h12v12H96zm12 0h12v12h-12zm12 0h12v12h-12zm12 0h12v12h-12zm-96 12h12v12H36zm12 0h12v12H48zm12 0h12v12H60zm12 0h12v12H72zm12 0h12v12H84zm12 0h12v12H96zm12 0h12v12h-12zm12 0h12v12h-12zm-72 12h12v12H48zm12 0h12v12H60zm12 0h12v12H72zm12 0h12v12H84zm12 0h12v12H96zm12 0h12v12h-12z"/><path fill="#f5b3c7" d="M24 36h12v12H24zm-12 0h12v12H12zm0 12h12v12H12zm120-12h12v12h-12zm12 0h12v12h-12zm0 12h12v12h-12zM84 96h12v12H84zm-12 0h12v12H72z"/><path fill="#1a1a21" d="M48 60h12v12H48zm60 0h12v12h-12z"/><path fill="#eb8ca6" d="M72 84h12v12H72zm12 0h12v12H84z"/></svg>