<svg width="9" height="10" viewBox="0 0 9 10" fill="none" xmlns="http://www.w3.org/2000/svg">
<path d="M3.00515 0.00496531C3.21782 0.0267678 3.41777 0.122707 3.56989 0.278054C3.7437 0.455579 3.84138 0.696281 3.84168 0.946706V5.40549C3.84174 5.58456 3.91109 5.75591 4.03454 5.88216C4.15818 6.00844 4.32577 6.07911 4.5 6.07911C4.67423 6.07911 4.84182 6.00844 4.96546 5.88216C5.08891 5.75591 5.15826 5.58456 5.15832 5.40549V0.946706C5.15862 0.696282 5.2563 0.45558 5.43011 0.278054C5.60399 0.100489 5.84029 0.000280669 6.0868 0H8.07152L8.16347 0.00496531C8.37614 0.0267592 8.57608 0.12271 8.72821 0.278054C8.90202 0.45558 8.9997 0.696282 9 0.946706V5.35419C9 7.89229 7.00229 9.97956 4.53418 9.99834L4.53499 9.99917C4.52274 9.99929 4.51029 10 4.5 10C3.30618 9.99995 2.16114 9.51536 1.31745 8.65359C0.473861 7.79192 3.73911e-05 6.62341 0 5.40549V0.946706C0.000302554 0.696282 0.0979803 0.455579 0.27179 0.278054C0.445672 0.100496 0.681975 0.000274824 0.928481 0H2.9132L3.00515 0.00496531ZM1.06356 5.40549C1.06359 5.86885 1.1537 6.32753 1.32803 6.75521C1.50247 7.18305 1.75801 7.57173 2.07993 7.89805C2.40184 8.22436 2.7839 8.48215 3.20371 8.6569C3.62348 8.83163 4.07285 8.92026 4.52604 8.91675C6.40019 8.90254 7.93644 7.30893 7.93644 5.35419V2.51539H6.22188V5.40549C6.22182 5.87104 6.04092 6.31799 5.71817 6.64763C5.39534 6.97731 4.95714 7.16236 4.5 7.16236C4.04286 7.16236 3.60466 6.97731 3.28183 6.64763C2.95908 6.31799 2.77818 5.87104 2.77812 5.40549V2.51539H1.06356V5.40549Z" fill="#DEDEE0"/>
</svg>
