<svg width="24" height="24" viewBox="0 0 24 24" fill="none" xmlns="http://www.w3.org/2000/svg">
<path d="M9.87891 7.87891H4.22205" stroke="black" stroke-width="2" stroke-linecap="round" stroke-linejoin="round"/>
<path d="M19.7784 4.13388C19.7784 3.81433 19.6514 3.50787 19.4255 3.28191C19.1995 3.05595 18.893 2.92899 18.5735 2.92897L15.3265 2.92897C15.0069 2.92899 14.7004 3.05595 14.4745 3.28191C14.2485 3.50787 14.1216 3.81433 14.1215 4.13388V12.6602C14.1215 12.9387 14.0667 13.2146 13.9601 13.472C13.8535 13.7293 13.6972 13.9632 13.5002 14.1602C13.3032 14.3572 13.0694 14.5134 12.812 14.62C12.5546 14.7266 12.2788 14.7815 12.0002 14.7815C11.7216 14.7815 11.4458 14.7266 11.1884 14.62C10.9311 14.5134 10.6972 14.3572 10.5002 14.1602C10.3032 13.9632 10.147 13.7293 10.0404 13.472C9.93377 13.2146 9.8789 12.9387 9.8789 12.6602L9.8789 4.13388C9.87888 3.81433 9.75193 3.50787 9.52597 3.28191C9.30001 3.05595 8.99355 2.92899 8.67399 2.92897L5.42696 2.92897C5.1074 2.92899 4.80094 3.05595 4.57498 3.28191C4.34903 3.50787 4.22207 3.81433 4.22205 4.13388L4.22346 13.1368C4.22365 15.1997 5.04331 17.178 6.50214 18.6366C7.96096 20.0951 9.93944 20.9144 12.0023 20.9142C13.0238 20.9141 14.0352 20.7129 14.9789 20.3219C15.9225 19.9309 16.7799 19.3579 17.5021 18.6356C18.9607 17.1767 19.78 15.1983 19.7798 13.1353L19.7784 4.13388Z" stroke="black" stroke-width="2" stroke-linecap="round" stroke-linejoin="round"/>
<path d="M19.7783 7.87891H14.1215" stroke="black" stroke-width="2" stroke-linecap="round" stroke-linejoin="round"/>
</svg>
