<svg width="22" height="22" viewBox="0 0 22 22" fill="none" xmlns="http://www.w3.org/2000/svg">
<path fill-rule="evenodd" clip-rule="evenodd" d="M11.8642 11.7472C11.6084 11.912 11.3077 12 11 12C10.5874 12 10.1918 11.842 9.90006 11.5607C9.60833 11.2794 9.44444 10.8978 9.44444 10.5C9.44444 10.2033 9.53568 9.91332 9.7066 9.66664C9.87753 9.41997 10.1205 9.22771 10.4047 9.11418C10.689 9.00065 11.0017 8.97094 11.3035 9.02882C11.6052 9.0867 11.8824 9.22956 12.0999 9.43934C12.3175 9.64912 12.4656 9.91639 12.5257 10.2074C12.5857 10.4983 12.5549 10.7999 12.4371 11.074C12.3194 11.3481 12.12 11.5824 11.8642 11.7472Z" stroke="#DEDEE0" stroke-linecap="round" stroke-linejoin="round"/>
<path d="M18 10.5C18 10.5 15.6667 15 11 15C6.33333 15 4 10.5 4 10.5C4 10.5 6.33333 6 11 6C15.6667 6 18 10.5 18 10.5ZM11 12C11.3077 12 11.6084 11.912 11.8642 11.7472C12.12 11.5824 12.3194 11.3481 12.4371 11.074C12.5549 10.7999 12.5857 10.4983 12.5257 10.2074C12.4656 9.91639 12.3175 9.64912 12.0999 9.43934C11.8824 9.22956 11.6052 9.0867 11.3035 9.02882C11.0017 8.97094 10.689 9.00065 10.4047 9.11418C10.1205 9.22771 9.87753 9.41997 9.7066 9.66664C9.53568 9.91332 9.44444 10.2033 9.44444 10.5C9.44444 10.8978 9.60833 11.2794 9.90006 11.5607C10.1918 11.842 10.5874 12 11 12Z" stroke="#DEDEE0" stroke-linecap="round" stroke-linejoin="round"/>
</svg>
