<svg width="9" height="11" viewBox="0 0 9 11" fill="none" xmlns="http://www.w3.org/2000/svg">
<path d="M4.36364 10.7472C3.75852 10.7472 3.19176 10.6349 2.66335 10.4105C2.13778 10.1832 1.67472 9.86932 1.27415 9.46875C0.87358 9.06818 0.56108 8.60511 0.336648 8.07955C0.112216 7.55114 0 6.9858 0 6.38352C0 5.78125 0.112216 5.21733 0.336648 4.69176C0.56392 4.16335 0.87642 3.69886 1.27415 3.2983C1.67472 2.89773 2.13778 2.58523 2.66335 2.3608C3.19176 2.13352 3.75852 2.01989 4.36364 2.01989V3.12358C3.91193 3.12358 3.48864 3.20881 3.09375 3.37926C2.7017 3.54688 2.35653 3.77983 2.05824 4.07812C1.75994 4.37642 1.52557 4.72301 1.35511 5.1179C1.1875 5.50994 1.10369 5.93182 1.10369 6.38352C1.10369 6.83523 1.1875 7.25852 1.35511 7.65341C1.52273 8.04545 1.75568 8.39063 2.05398 8.68892C2.35227 8.98722 2.69886 9.22159 3.09375 9.39205C3.48864 9.55966 3.91193 9.64347 4.36364 9.64347C4.81534 9.64347 5.23722 9.55966 5.62926 9.39205C6.02415 9.22159 6.37074 8.98722 6.66903 8.68892C6.97017 8.39063 7.20455 8.04403 7.37216 7.64915C7.53977 7.25426 7.62358 6.83239 7.62358 6.38352H8.72727C8.72727 6.9858 8.61364 7.55114 8.38636 8.07955C8.16193 8.60511 7.84943 9.06818 7.44886 9.46875C7.0483 9.86932 6.58381 10.1832 6.0554 10.4105C5.52983 10.6349 4.96591 10.7472 4.36364 10.7472ZM4.11648 5.30114V0L6.78409 2.65057L4.11648 5.30114Z" fill="#DEDEE0"/>
</svg>
