<svg width="10" height="10" viewBox="0 0 10 10" fill="none" xmlns="http://www.w3.org/2000/svg">
<path d="M5.50879 0C6.29138 4.74449e-05 6.99956 0.188016 7.63574 0.563477L7.63867 0.564453L7.64355 0.567383L7.87793 0.711914C8.40974 1.0618 8.84472 1.51118 9.18262 2.06055C9.56752 2.6865 9.75977 3.38415 9.75977 4.1543C9.75971 4.91193 9.56767 5.60334 9.18262 6.22949C8.79618 6.85774 8.28276 7.36069 7.64258 7.74023C7.00449 8.11846 6.30015 8.30854 5.52734 8.30859C5.0808 8.30859 4.65315 8.24856 4.24414 8.13086L4.24023 8.12988C3.94239 8.03215 3.65785 7.90452 3.38672 7.74707L3.12012 7.58008L3.05273 7.53516L0.733398 9.75781L0 8.99219L0.0722656 8.92285L2.18945 6.87988L2.25293 6.81738L2.19922 6.74805C1.89639 6.35557 1.66647 5.94548 1.50977 5.51953C1.35371 5.09514 1.27543 4.64007 1.27539 4.1543C1.27539 3.384 1.46861 2.68646 1.85352 2.06055C2.23976 1.43263 2.75187 0.934763 3.3916 0.567383L3.6377 0.43457C4.21961 0.144429 4.84353 0 5.50879 0ZM5.52734 1.14453C4.95509 1.14453 4.43069 1.28178 3.95801 1.55762L3.95703 1.55859C3.49866 1.82146 3.1358 2.18533 2.86816 2.64746L2.86719 2.64844C2.59834 3.10102 2.46387 3.60402 2.46387 4.1543L2.4707 4.3584C2.49992 4.82922 2.63087 5.26779 2.86426 5.67285L2.86719 5.67773C3.13426 6.12717 3.49695 6.48905 3.95312 6.76367L3.95605 6.76562L3.95996 6.76758C4.43249 7.03083 4.95597 7.16309 5.52734 7.16309L5.73047 7.15625C6.13314 7.13159 6.51178 7.03316 6.86523 6.86035L7.04004 6.76758C7.51024 6.49304 7.88128 6.13035 8.14941 5.67969C8.4306 5.21538 8.57221 4.70542 8.57227 4.1543L8.56543 3.9502C8.5346 3.48045 8.39608 3.04737 8.15137 2.65234L8.14941 2.64941C7.88199 2.18692 7.51904 1.82377 7.06055 1.56055L7.05859 1.55957C6.65558 1.31779 6.21455 1.18162 5.73535 1.15137L5.52734 1.14453Z" fill="#DEDEE0"/>
</svg>
